<svg width="22" height="20" viewBox="0 0 22 20" fill="none" xmlns="http://www.w3.org/2000/svg">
<path d="M21.5621 9.92489C21.562 10.1092 21.5062 10.2898 21.4009 10.4465C21.2956 10.6032 21.145 10.7299 20.9659 10.8122L1.55969 19.7452C1.37756 19.8289 1.17344 19.8634 0.970922 19.8447C0.768403 19.826 0.575765 19.755 0.415284 19.6397C0.254802 19.5245 0.133033 19.3697 0.0640574 19.1935C-0.00491614 19.0172 -0.0182771 18.8265 0.0255175 18.6435L2.13001 9.92488L0.0255184 1.20725C-0.0185338 1.02419 -0.00536541 0.833387 0.0635013 0.656933C0.132368 0.480479 0.254116 0.325592 0.414646 0.210206C0.575176 0.0948199 0.767923 0.0236549 0.97057 0.00495071C1.17322 -0.0137535 1.37747 0.0207683 1.55969 0.104519L20.9659 9.03754C21.145 9.11991 21.2956 9.24655 21.4009 9.40327C21.5062 9.55999 21.562 9.74061 21.5621 9.92489ZM4.09867 10.9174L2.62164 17.0376L15.9171 10.9174L4.09867 10.9174ZM15.9171 8.93233L2.62164 2.81222L4.09867 8.93233L15.9171 8.93233Z" fill="white"/>
</svg>
