<svg width="21" height="26" viewBox="0 0 21 26" fill="none" xmlns="http://www.w3.org/2000/svg">
<path d="M10.4626 12.9309C13.7572 12.9309 16.428 10.2601 16.428 6.96544C16.428 3.67082 13.7572 1 10.4626 1C7.16795 1 4.49713 3.67082 4.49713 6.96544C4.49713 10.2601 7.16795 12.9309 10.4626 12.9309Z" stroke="white" stroke-width="1.5" stroke-linecap="round" stroke-linejoin="round"/>
<path fill-rule="evenodd" clip-rule="evenodd" d="M1.00002 21.2278C0.998437 20.8084 1.09223 20.3942 1.27431 20.0164C1.84572 18.8736 3.45709 18.2679 4.79418 17.9936C5.75849 17.7878 6.73611 17.6504 7.71978 17.5822C9.54096 17.4222 11.3727 17.4222 13.1938 17.5822C14.1774 17.6511 15.155 17.7886 16.1194 17.9936C17.4565 18.2679 19.0679 18.8164 19.6393 20.0164C20.0055 20.7865 20.0055 21.6805 19.6393 22.4506C19.0679 23.6505 17.4565 24.1991 16.1194 24.4619C15.1563 24.6762 14.1783 24.8176 13.1938 24.8848C11.7116 25.0104 10.2223 25.0333 8.73688 24.9533C8.39404 24.9533 8.06262 24.9533 7.71978 24.8848C6.73902 24.8184 5.76478 24.6771 4.80561 24.4619C3.45709 24.1991 1.85715 23.6505 1.27431 22.4506C1.09316 22.0684 0.99946 21.6507 1.00002 21.2278Z" stroke="white" stroke-width="1.5" stroke-linecap="round" stroke-linejoin="round"/>
</svg>
