<svg width="772" height="85" viewBox="0 0 772 85" fill="none" xmlns="http://www.w3.org/2000/svg">
<path d="M43.1932 4.18182V3.18182H42.1932V4.18182H43.1932ZM57.9545 4.18182H58.9545V3.18182H57.9545V4.18182ZM54.3068 62.8864L53.4634 62.3492L53.4611 62.3528L54.3068 62.8864ZM44.1818 71.8182L44.6196 72.7173L44.6234 72.7154L44.1818 71.8182ZM13.8068 71.8182L13.3652 72.7154L13.369 72.7173L13.8068 71.8182ZM3.68182 62.8864L2.83609 63.42L3.68182 62.8864ZM0.068182 4.18182V3.18182H-0.931818V4.18182H0.068182ZM14.8295 4.18182H15.8295V3.18182H14.8295V4.18182ZM16.5682 55.3523L15.6958 55.8412L15.6999 55.8484L16.5682 55.3523ZM21.5455 60.2273L21.0614 61.1023L21.5455 60.2273ZM36.4773 60.2273L35.9932 59.3522L35.9892 59.3544L36.4773 60.2273ZM41.4205 55.3523L40.5522 54.8561L40.5481 54.8634L41.4205 55.3523ZM43.1932 5.18182H57.9545V3.18182H43.1932V5.18182ZM56.9545 4.18182V49.5227H58.9545V4.18182H56.9545ZM56.9545 49.5227C56.9545 54.4477 55.7806 58.7109 53.4634 62.3492L55.1503 63.4236C57.6967 59.4254 58.9545 54.7795 58.9545 49.5227H56.9545ZM53.4611 62.3528C51.1577 66.0035 47.9278 68.8601 43.7403 70.921L44.6234 72.7154C49.1177 70.5036 52.6378 67.4056 55.1525 63.42L53.4611 62.3528ZM43.744 70.9191C39.5637 72.9546 34.6618 73.9886 29.0114 73.9886V75.9886C34.9064 75.9886 40.1182 74.9091 44.6196 72.7173L43.744 70.9191ZM29.0114 73.9886C23.3376 73.9886 18.4245 72.9543 14.2446 70.9191L13.369 72.7173C17.871 74.9093 23.0942 75.9886 29.0114 75.9886V73.9886ZM14.2484 70.921C10.0608 68.8601 6.83098 66.0035 4.52755 62.3528L2.83609 63.42C5.35083 67.4056 8.87098 70.5036 13.3653 72.7154L14.2484 70.921ZM4.52755 62.3528C2.2317 58.714 1.06818 54.4496 1.06818 49.5227H-0.931818C-0.931818 54.7777 0.313757 59.4223 2.83609 63.42L4.52755 62.3528ZM1.06818 49.5227V4.18182H-0.931818V49.5227H1.06818ZM0.068182 5.18182H14.8295V3.18182H0.068182V5.18182ZM13.8295 4.18182V48.2614H15.8295V4.18182H13.8295ZM13.8295 48.2614C13.8295 51.0704 14.4433 53.6062 15.6958 55.8412L17.4405 54.8634C16.3749 52.962 15.8295 50.7705 15.8295 48.2614H13.8295ZM15.6999 55.8484C16.975 58.0798 18.7689 59.8341 21.0614 61.1023L22.0295 59.3522C20.0493 58.2568 18.525 56.7611 17.4364 54.8561L15.6999 55.8484ZM21.0614 61.1023C23.3686 62.3786 26.029 63 29.0114 63V61C26.3119 61 23.9951 60.4396 22.0295 59.3522L21.0614 61.1023ZM29.0114 63C32.0146 63 34.6774 62.3793 36.9653 61.1001L35.9892 59.3544C34.0499 60.4388 31.7354 61 29.0114 61V63ZM36.9613 61.1023C39.2554 59.8332 41.0399 58.0767 42.2928 55.8412L40.5481 54.8634C39.4828 56.7642 37.9718 58.2577 35.9932 59.3522L36.9613 61.1023ZM42.2887 55.8484C43.5666 53.6121 44.1932 51.0738 44.1932 48.2614H42.1932C42.1932 50.7671 41.638 52.956 40.5522 54.8561L42.2887 55.8484ZM44.1932 48.2614V4.18182H42.1932V48.2614H44.1932ZM84.8608 4.18182H85.8608V3.18182H84.8608V4.18182ZM84.8608 74V75H85.8608V74H84.8608ZM70.0994 74H69.0994V75H70.0994V74ZM70.0994 4.18182V3.18182H69.0994V4.18182H70.0994ZM83.8608 4.18182V74H85.8608V4.18182H83.8608ZM84.8608 73H70.0994V75H84.8608V73ZM71.0994 74V4.18182H69.0994V74H71.0994ZM70.0994 5.18182H84.8608V3.18182H70.0994V5.18182ZM127.142 0.909086L128.108 1.169L128.447 -0.0909138H127.142V0.909086ZM104.642 84.5V85.5H105.408L105.608 84.7599L104.642 84.5ZM92.1307 84.5L91.1651 84.2401L90.8259 85.5H92.1307V84.5ZM114.631 0.909086V-0.0909138H113.864L113.665 0.64917L114.631 0.909086ZM126.176 0.64917L103.676 84.2401L105.608 84.7599L128.108 1.169L126.176 0.64917ZM104.642 83.5H92.1307V85.5H104.642V83.5ZM93.0963 84.7599L115.596 1.169L113.665 0.64917L91.1651 84.2401L93.0963 84.7599ZM114.631 1.90909H127.142V-0.0909138H114.631V1.90909ZM177.537 4.18182V3.18182H176.537V4.18182H177.537ZM192.298 4.18182H193.298V3.18182H192.298V4.18182ZM188.651 62.8864L187.807 62.3492L187.805 62.3528L188.651 62.8864ZM178.526 71.8182L178.963 72.7173L178.967 72.7154L178.526 71.8182ZM148.151 71.8182L147.709 72.7154L147.713 72.7173L148.151 71.8182ZM138.026 62.8864L137.18 63.42L138.026 62.8864ZM134.412 4.18182V3.18182H133.412V4.18182H134.412ZM149.173 4.18182H150.173V3.18182H149.173V4.18182ZM150.912 55.3523L150.04 55.8412L150.044 55.8484L150.912 55.3523ZM155.889 60.2273L155.405 61.1023L155.889 60.2273ZM170.821 60.2273L170.337 59.3522L170.333 59.3544L170.821 60.2273ZM175.764 55.3523L174.896 54.8561L174.892 54.8634L175.764 55.3523ZM177.537 5.18182H192.298V3.18182H177.537V5.18182ZM191.298 4.18182V49.5227H193.298V4.18182H191.298ZM191.298 49.5227C191.298 54.4477 190.124 58.7109 187.807 62.3492L189.494 63.4236C192.04 59.4254 193.298 54.7795 193.298 49.5227H191.298ZM187.805 62.3528C185.501 66.0035 182.272 68.8601 178.084 70.921L178.967 72.7154C183.461 70.5036 186.982 67.4056 189.496 63.42L187.805 62.3528ZM178.088 70.9191C173.907 72.9546 169.006 73.9886 163.355 73.9886V75.9886C169.25 75.9886 174.462 74.9091 178.963 72.7173L178.088 70.9191ZM163.355 73.9886C157.681 73.9886 152.768 72.9543 148.588 70.9191L147.713 72.7173C152.215 74.9093 157.438 75.9886 163.355 75.9886V73.9886ZM148.592 70.921C144.405 68.8601 141.175 66.0035 138.871 62.3528L137.18 63.42C139.695 67.4056 143.215 70.5036 147.709 72.7154L148.592 70.921ZM138.871 62.3528C136.575 58.714 135.412 54.4496 135.412 49.5227H133.412C133.412 54.7777 134.658 59.4223 137.18 63.42L138.871 62.3528ZM135.412 49.5227V4.18182H133.412V49.5227H135.412ZM134.412 5.18182H149.173V3.18182H134.412V5.18182ZM148.173 4.18182V48.2614H150.173V4.18182H148.173ZM148.173 48.2614C148.173 51.0704 148.787 53.6062 150.04 55.8412L151.784 54.8634C150.719 52.962 150.173 50.7705 150.173 48.2614H148.173ZM150.044 55.8484C151.319 58.0798 153.113 59.8341 155.405 61.1023L156.373 59.3522C154.393 58.2568 152.869 56.7611 151.78 54.8561L150.044 55.8484ZM155.405 61.1023C157.712 62.3786 160.373 63 163.355 63V61C160.656 61 158.339 60.4396 156.373 59.3522L155.405 61.1023ZM163.355 63C166.358 63 169.021 62.3793 171.309 61.1001L170.333 59.3544C168.394 60.4388 166.079 61 163.355 61V63ZM171.305 61.1023C173.599 59.8332 175.384 58.0767 176.637 55.8412L174.892 54.8634C173.827 56.7642 172.316 58.2577 170.337 59.3522L171.305 61.1023ZM176.632 55.8484C177.91 53.6121 178.537 51.0738 178.537 48.2614H176.537C176.537 50.7671 175.982 52.956 174.896 54.8561L176.632 55.8484ZM178.537 48.2614V4.18182H176.537V48.2614H178.537ZM218.284 4.18182L219.145 3.67259L218.854 3.18182H218.284V4.18182ZM232.364 27.9773L231.503 28.4865L231.793 28.9773H232.364V27.9773ZM232.909 27.9773V28.9773H233.478L233.769 28.4883L232.909 27.9773ZM247.057 4.18182V3.18182H246.488L246.197 3.67076L247.057 4.18182ZM263.727 4.18182L264.581 4.70279L265.509 3.18182H263.727V4.18182ZM242.42 39.0909L241.567 38.5699L241.245 39.0967L241.572 39.6203L242.42 39.0909ZM264.205 74V75H266.007L265.053 73.4706L264.205 74ZM247.227 74L246.37 74.515L246.661 75H247.227V74ZM232.909 50.1705L233.766 49.6554L233.475 49.1705H232.909V50.1705ZM232.364 50.1705V49.1705H231.798L231.506 49.6554L232.364 50.1705ZM218.045 74V75H218.611L218.903 74.515L218.045 74ZM201.136 74L200.289 73.4694L199.331 75H201.136V74ZM222.989 39.0909L223.836 39.6215L224.165 39.0959L223.841 38.5675L222.989 39.0909ZM201.545 4.18182V3.18182H199.758L200.693 4.70522L201.545 4.18182ZM217.423 4.69104L231.503 28.4865L233.224 27.468L219.145 3.67259L217.423 4.69104ZM232.364 28.9773H232.909V26.9773H232.364V28.9773ZM233.769 28.4883L247.916 4.69287L246.197 3.67076L232.05 27.4662L233.769 28.4883ZM247.057 5.18182H263.727V3.18182H247.057V5.18182ZM262.874 3.66084L241.567 38.5699L243.274 39.6119L264.581 4.70279L262.874 3.66084ZM241.572 39.6203L263.356 74.5294L265.053 73.4706L243.269 38.5615L241.572 39.6203ZM264.205 73H247.227V75H264.205V73ZM248.084 73.485L233.766 49.6554L232.052 50.6855L246.37 74.515L248.084 73.485ZM232.909 49.1705H232.364V51.1705H232.909V49.1705ZM231.506 49.6554L217.188 73.485L218.903 74.515L233.221 50.6855L231.506 49.6554ZM218.045 73H201.136V75H218.045V73ZM201.984 74.5306L223.836 39.6215L222.141 38.5603L200.289 73.4694L201.984 74.5306ZM223.841 38.5675L202.398 3.65841L200.693 4.70522L222.137 39.6143L223.841 38.5675ZM201.545 5.18182H218.284V3.18182H201.545V5.18182ZM295.287 74H294.287V75H295.287V74ZM295.287 4.18182V3.18182H294.287V4.18182H295.287ZM338.378 8.375L337.895 9.25064L337.898 9.25229L338.378 8.375ZM350.071 20.3409L349.185 20.8051L349.187 20.8081L350.071 20.3409ZM350.071 57.7727L349.186 57.3071L349.184 57.3102L350.071 57.7727ZM338.31 69.8068L337.83 68.9294L337.828 68.9303L338.31 69.8068ZM310.048 61.3523H309.048V62.3523H310.048V61.3523ZM330.435 59.0341L330.895 59.9216L330.898 59.9203L330.435 59.0341ZM337.185 51.7727L336.277 51.3533L336.276 51.3561L337.185 51.7727ZM337.185 26.375L336.276 26.7917L336.278 26.7969L337.185 26.375ZM330.469 19.1477L330.929 18.2602L330.469 19.1477ZM310.048 16.8295V15.8295H309.048V16.8295H310.048ZM320.037 73H295.287V75H320.037V73ZM296.287 74V4.18182H294.287V74H296.287ZM295.287 5.18182H320.241V3.18182H295.287V5.18182ZM320.241 5.18182C327.131 5.18182 333.003 6.55246 337.895 9.25064L338.861 7.49936C333.616 4.60663 327.397 3.18182 320.241 3.18182V5.18182ZM337.898 9.25229C342.79 11.9286 346.548 15.7721 349.185 20.8051L350.957 19.8768C348.14 14.5007 344.102 10.3668 338.858 7.49771L337.898 9.25229ZM349.187 20.8081C351.845 25.839 353.196 31.8984 353.196 39.0227H355.196C355.196 31.6471 353.797 25.2519 350.955 19.8737L349.187 20.8081ZM353.196 39.0227C353.196 46.1702 351.845 52.2529 349.186 57.3071L350.956 58.2383C353.797 52.838 355.196 46.4207 355.196 39.0227H353.196ZM349.184 57.3102C346.548 62.3641 342.768 66.2301 337.83 68.9294L338.789 70.6843C344.079 67.7927 348.14 63.6359 350.958 58.2353L349.184 57.3102ZM337.828 68.9303C332.914 71.6287 326.996 73 320.037 73V75C327.259 75 333.523 73.5759 338.791 70.6834L337.828 68.9303ZM310.048 62.3523H319.423V60.3523H310.048V62.3523ZM319.423 62.3523C323.901 62.3523 327.739 61.5598 330.895 59.9216L329.974 58.1465C327.175 59.5993 323.673 60.3523 319.423 60.3523V62.3523ZM330.898 59.9203C334.107 58.2426 336.508 55.65 338.094 52.1894L336.276 51.3561C334.862 54.4409 332.762 56.6892 329.971 58.1479L330.898 59.9203ZM338.092 52.1922C339.696 48.721 340.469 44.3139 340.469 39.0227H338.469C338.469 44.1406 337.718 48.2335 336.277 51.3533L338.092 52.1922ZM340.469 39.0227C340.469 33.776 339.696 29.4021 338.091 25.9531L336.278 26.7969C337.719 29.8933 338.469 33.9513 338.469 39.0227H340.469ZM338.094 25.9583C336.508 22.4989 334.119 19.916 330.929 18.2602L330.008 20.0353C332.773 21.4703 334.861 23.7056 336.276 26.7917L338.094 25.9583ZM330.929 18.2602C327.774 16.622 323.935 15.8295 319.457 15.8295V17.8295C323.707 17.8295 327.209 18.5826 330.008 20.0353L330.929 18.2602ZM319.457 15.8295H310.048V17.8295H319.457V15.8295ZM309.048 16.8295V61.3523H311.048V16.8295H309.048ZM365.131 74H364.131V75H365.131V74ZM365.131 4.18182V3.18182H364.131V4.18182H365.131ZM412.176 4.18182H413.176V3.18182H412.176V4.18182ZM412.176 16.3523V17.3523H413.176V16.3523H412.176ZM379.892 16.3523V15.3523H378.892V16.3523H379.892ZM379.892 32.9886H378.892V33.9886H379.892V32.9886ZM409.756 32.9886H410.756V31.9886H409.756V32.9886ZM409.756 45.1591V46.1591H410.756V45.1591H409.756ZM379.892 45.1591V44.1591H378.892V45.1591H379.892ZM379.892 61.8295H378.892V62.8295H379.892V61.8295ZM412.312 61.8295H413.312V60.8295H412.312V61.8295ZM412.312 74V75H413.312V74H412.312ZM366.131 74V4.18182H364.131V74H366.131ZM365.131 5.18182H412.176V3.18182H365.131V5.18182ZM411.176 4.18182V16.3523H413.176V4.18182H411.176ZM412.176 15.3523H379.892V17.3523H412.176V15.3523ZM378.892 16.3523V32.9886H380.892V16.3523H378.892ZM379.892 33.9886H409.756V31.9886H379.892V33.9886ZM408.756 32.9886V45.1591H410.756V32.9886H408.756ZM409.756 44.1591H379.892V46.1591H409.756V44.1591ZM378.892 45.1591V61.8295H380.892V45.1591H378.892ZM379.892 62.8295H412.312V60.8295H379.892V62.8295ZM411.312 61.8295V74H413.312V61.8295H411.312ZM412.312 73H365.131V75H412.312V73ZM461.787 24.2614L460.792 24.3601L460.881 25.2614H461.787V24.2614ZM443.753 16.5909L444.122 17.5203L444.133 17.5158L443.753 16.5909ZM439.935 19.3523L439.135 18.7522L439.127 18.7623L439.935 19.3523ZM438.639 23.375L439.639 23.4113L439.639 23.3932V23.375H438.639ZM439.423 26.6477L438.569 27.1683L438.574 27.1758L438.579 27.1833L439.423 26.6477ZM441.844 29.0682L441.289 29.9002L441.296 29.9045L441.302 29.9088L441.844 29.0682ZM445.389 30.8068L445.04 31.7438L445.047 31.7464L445.054 31.7489L445.389 30.8068ZM449.685 32.0341L449.917 31.0615L449.91 31.0598L449.903 31.0582L449.685 32.0341ZM455.957 33.5341L455.725 34.5067L455.732 34.5084L455.739 34.5099L455.957 33.5341ZM464.344 36.2614L463.936 37.1745L464.344 36.2614ZM470.957 40.4545L471.622 39.7076L470.957 40.4545ZM475.287 46.3182L474.377 46.732L474.38 46.7396L475.287 46.3182ZM476.889 54.0568L477.889 54.0621L477.889 54.049L476.889 54.0568ZM473.616 65.1705L472.793 64.6034L472.792 64.6047L473.616 65.1705ZM464.344 72.4318L464.734 73.3526L464.736 73.3515L464.344 72.4318ZM435.06 72.3977L434.676 73.3213L434.678 73.322L435.06 72.3977ZM425.31 64.7273L424.483 65.2896L424.487 65.2959L425.31 64.7273ZM421.662 52.0795V51.0795H420.639L420.662 52.1022L421.662 52.0795ZM435.946 52.0795L436.944 52.0117L436.88 51.0795H435.946V52.0795ZM437.957 57.9432L437.159 58.545L437.164 58.5515L437.169 58.5579L437.957 57.9432ZM442.764 61.4545L442.395 62.3838L442.407 62.3887L442.764 61.4545ZM456.128 61.5227L455.764 60.5911L455.76 60.5927L456.128 61.5227ZM460.457 58.4886L461.242 59.1083L460.457 58.4886ZM460.594 50.0682L459.832 50.7163L459.84 50.7255L460.594 50.0682ZM456.571 47.3409L456.177 48.2601L456.181 48.2619L456.571 47.3409ZM450.128 45.2955L449.884 46.2654L449.893 46.2676L450.128 45.2955ZM442.526 43.3864L442.769 42.4165L442.762 42.4147L442.526 43.3864ZM428.582 36.6705L427.916 37.4162L428.582 36.6705ZM423.503 24.3636L424.503 24.368L424.503 24.3583L423.503 24.3636ZM426.878 13.2841L426.069 12.6963L426.066 12.7001L426.878 13.2841ZM463.526 5.88636L463.109 6.79526L463.111 6.79618L463.526 5.88636ZM472.594 13.2841L471.768 13.8484L472.594 13.2841ZM475.935 24.2614V25.2614H476.951L476.935 24.245L475.935 24.2614ZM462.782 24.1627C462.484 21.1549 461.184 18.7515 458.868 17.047L457.683 18.6575C459.504 19.9985 460.545 21.8678 460.792 24.3601L462.782 24.1627ZM458.868 17.047C456.574 15.3576 453.534 14.5682 449.855 14.5682V16.5682C453.267 16.5682 455.841 17.3014 457.683 18.6575L458.868 17.047ZM449.855 14.5682C447.358 14.5682 445.186 14.9207 443.373 15.666L444.133 17.5158C445.638 16.8974 447.534 16.5682 449.855 16.5682V14.5682ZM443.384 15.6616C441.589 16.3744 440.153 17.395 439.135 18.7523L440.735 19.9523C441.489 18.9459 442.598 18.1256 444.122 17.5203L443.384 15.6616ZM439.127 18.7623C438.135 20.1198 437.639 21.6685 437.639 23.375H439.639C439.639 22.0815 440.007 20.9483 440.742 19.9423L439.127 18.7623ZM437.64 23.3387C437.588 24.7551 437.885 26.0457 438.569 27.1683L440.277 26.1271C439.825 25.3862 439.599 24.4949 439.639 23.4113L437.64 23.3387ZM438.579 27.1833C439.253 28.2459 440.163 29.1498 441.289 29.9002L442.398 28.2361C441.479 27.6229 440.776 26.9132 440.268 26.1122L438.579 27.1833ZM441.302 29.9088C442.395 30.6129 443.643 31.2229 445.04 31.7438L445.739 29.8698C444.454 29.3907 443.338 28.8416 442.385 28.2276L441.302 29.9088ZM445.054 31.7489C446.436 32.241 447.908 32.661 449.466 33.0099L449.903 31.0582C448.416 30.7254 447.024 30.3272 445.725 29.8647L445.054 31.7489ZM449.452 33.0067L455.725 34.5067L456.19 32.5615L449.917 31.0615L449.452 33.0067ZM455.739 34.5099C458.727 35.1789 461.458 36.0683 463.936 37.1745L464.751 35.3482C462.138 34.1817 459.279 33.2529 456.176 32.5582L455.739 34.5099ZM463.936 37.1745C466.399 38.2738 468.514 39.6181 470.292 41.2015L471.622 39.7076C469.674 37.9728 467.38 36.5216 464.751 35.3482L463.936 37.1745ZM470.292 41.2015C472.053 42.7687 473.412 44.6102 474.377 46.732L476.197 45.9044C475.116 43.5262 473.589 41.4585 471.622 39.7076L470.292 41.2015ZM474.38 46.7396C475.356 48.8395 475.867 51.274 475.889 54.0646L477.889 54.049C477.866 51.0214 477.309 48.2969 476.194 45.8968L474.38 46.7396ZM475.889 54.0515C475.867 58.149 474.824 61.6521 472.793 64.6034L474.44 65.7375C476.727 62.416 477.866 58.5101 477.889 54.0621L475.889 54.0515ZM472.792 64.6047C470.78 67.5374 467.851 69.8469 463.951 71.5121L464.736 73.3515C468.927 71.5622 472.181 69.0308 474.441 65.7362L472.792 64.6047ZM463.954 71.5111C460.085 73.1502 455.373 73.9886 449.787 73.9886V75.9886C455.564 75.9886 460.557 75.1226 464.734 73.3526L463.954 71.5111ZM449.787 73.9886C444.25 73.9886 439.476 73.1401 435.441 71.4735L434.678 73.322C439.007 75.1099 444.051 75.9886 449.787 75.9886V73.9886ZM435.443 71.4742C431.444 69.8134 428.354 67.3722 426.132 64.1586L424.487 65.2959C426.947 68.855 430.357 71.5275 434.676 73.3213L435.443 71.4742ZM426.137 64.165C423.948 60.9472 422.772 56.9293 422.662 52.0569L420.662 52.1022C420.779 57.2752 422.034 61.6892 424.483 65.2896L426.137 64.165ZM421.662 53.0795H435.946V51.0795H421.662V53.0795ZM434.948 52.1473C435.118 54.6436 435.839 56.7939 437.159 58.545L438.756 57.3413C437.712 55.9561 437.092 54.1973 436.944 52.0117L434.948 52.1473ZM437.169 58.5579C438.493 60.2571 440.246 61.5293 442.395 62.3838L443.134 60.5253C441.282 59.7889 439.831 58.7201 438.746 57.3284L437.169 58.5579ZM442.407 62.3887C444.562 63.2119 446.97 63.6136 449.616 63.6136V61.6136C447.172 61.6136 445.012 61.2427 443.121 60.5204L442.407 62.3887ZM449.616 63.6136C452.21 63.6136 454.511 63.2367 456.495 62.4528L455.76 60.5927C454.063 61.2633 452.022 61.6136 449.616 61.6136V63.6136ZM456.491 62.4543C458.486 61.6761 460.088 60.5702 461.242 59.1083L459.673 57.869C458.781 58.998 457.497 59.9148 455.764 60.5911L456.491 62.4543ZM461.242 59.1083C462.407 57.6327 462.991 55.9248 462.991 54.0227H460.991C460.991 55.4843 460.553 56.7536 459.673 57.869L461.242 59.1083ZM462.991 54.0227C462.991 52.2405 462.455 50.6809 461.347 49.4108L459.84 50.7255C460.596 51.5918 460.991 52.6686 460.991 54.0227H462.991ZM461.355 49.4201C460.315 48.1974 458.826 47.2093 456.961 46.4199L456.181 48.2619C457.861 48.9725 459.055 49.8026 459.832 50.7163L461.355 49.4201ZM456.965 46.4218C455.148 45.6432 452.944 44.9456 450.362 44.3233L449.893 46.2676C452.403 46.8726 454.494 47.5386 456.177 48.2601L456.965 46.4218ZM450.371 44.3256L442.769 42.4165L442.282 44.3562L449.884 46.2653L450.371 44.3256ZM442.762 42.4147C436.985 41.0096 432.502 38.8309 429.249 35.9247L427.916 37.4162C431.481 40.6009 436.293 42.8995 442.289 44.358L442.762 42.4147ZM429.249 35.9247C426.082 33.0957 424.481 29.2818 424.503 24.368L422.503 24.3592C422.479 29.7637 424.265 34.1543 427.916 37.4162L429.249 35.9247ZM424.503 24.3583C424.481 20.3232 425.551 16.8406 427.69 13.8681L426.066 12.7001C423.659 16.0458 422.479 19.9496 422.503 24.369L424.503 24.3583ZM427.687 13.8719C429.867 10.8719 432.867 8.51076 436.726 6.8006L435.916 4.97212C431.775 6.80742 428.48 9.37815 426.069 12.6963L427.687 13.8719ZM436.726 6.8006C440.579 5.09292 444.983 4.22727 449.957 4.22727V2.22727C444.75 2.22727 440.063 3.13435 435.916 4.97212L436.726 6.8006ZM449.957 4.22727C455.026 4.22727 459.401 5.09422 463.109 6.79526L463.943 4.97747C459.923 3.13305 455.252 2.22727 449.957 2.22727V4.22727ZM463.111 6.79618C466.851 8.50232 469.724 10.8567 471.768 13.8484L473.419 12.7198C471.146 9.39328 467.973 6.81586 463.941 4.97654L463.111 6.79618ZM471.768 13.8484C473.807 16.8317 474.87 20.2966 474.935 24.2778L476.935 24.245C476.863 19.9079 475.699 16.0546 473.419 12.7198L471.768 13.8484ZM475.935 23.2614H461.787V25.2614H475.935V23.2614ZM501.58 4.18182H502.58V3.18182H501.58V4.18182ZM501.58 74V75H502.58V74H501.58ZM486.818 74H485.818V75H486.818V74ZM486.818 4.18182V3.18182H485.818V4.18182H486.818ZM500.58 4.18182V74H502.58V4.18182H500.58ZM501.58 73H486.818V75H501.58V73ZM487.818 74V4.18182H485.818V74H487.818ZM486.818 5.18182H501.58V3.18182H486.818V5.18182ZM560.02 26.75L559.059 27.0265L559.267 27.75H560.02V26.75ZM558.009 22.3523L557.176 22.907L557.181 22.9138L558.009 22.3523ZM554.838 19.0795L554.243 19.8831L554.251 19.8893L554.26 19.8953L554.838 19.0795ZM550.611 17L550.32 17.9567L550.323 17.9578L550.611 17ZM535.986 18.9432L535.438 18.1068L535.434 18.109L535.986 18.9432ZM529.713 26.6818L530.626 27.0891L530.627 27.0868L529.713 26.6818ZM535.952 59.2386L535.399 60.0718L535.404 60.075L535.952 59.2386ZM554.088 60.125L554.535 61.0194L554.539 61.0177L554.088 60.125ZM559.543 55.0455L558.679 54.5416L558.675 54.5483L559.543 55.0455ZM561.452 47.3068L561.598 46.3176L560.452 46.1482V47.3068H561.452ZM564.452 47.75V48.75L564.598 46.7607L564.452 47.75ZM546.452 47.75H545.452V48.75H546.452V47.75ZM546.452 36.6364V35.6364H545.452V36.6364H546.452ZM575.668 36.6364H576.668V35.6364H575.668V36.6364ZM571.781 61.25L572.642 61.7586L572.643 61.7566L571.781 61.25ZM561.077 71.4091L561.538 72.2963L561.542 72.2945L561.077 71.4091ZM528.213 70.625L527.707 71.4873L527.71 71.4891L528.213 70.625ZM516.622 58.25L515.732 58.7062L515.735 58.7108L516.622 58.25ZM514.952 24.0227L514.015 23.6737L514.014 23.6763L514.952 24.0227ZM521.906 12.7045L522.626 13.3983L521.906 12.7045ZM532.304 5.64772L531.926 4.72184L532.304 5.64772ZM556.202 4.96591L555.88 5.9127L555.885 5.91459L556.202 4.96591ZM565.27 9.80682L564.648 10.5903L564.652 10.5929L565.27 9.80682ZM571.781 17.2727L570.917 17.7762L570.919 17.7791L571.781 17.2727ZM575.02 26.75V27.75H576.168L576.01 26.6131L575.02 26.75ZM560.981 26.4735C560.478 24.7253 559.766 23.1608 558.836 21.7908L557.181 22.9138C557.979 24.0892 558.607 25.4566 559.059 27.0265L560.981 26.4735ZM558.841 21.7976C557.91 20.402 556.768 19.2221 555.417 18.2638L554.26 19.8953C555.408 20.7097 556.38 21.7116 557.176 22.907L558.841 21.7976ZM555.433 18.276C554.105 17.2923 552.59 16.5498 550.898 16.0422L550.323 17.9578C551.813 18.4048 553.116 19.0486 554.243 19.8831L555.433 18.276ZM550.902 16.0433C549.225 15.5331 547.387 15.2841 545.395 15.2841V17.2841C547.221 17.2841 548.86 17.5124 550.32 17.9567L550.902 16.0433ZM545.395 15.2841C541.653 15.2841 538.322 16.2164 535.438 18.1068L536.534 19.7795C539.059 18.1245 542.001 17.2841 545.395 17.2841V15.2841ZM535.434 18.109C532.57 20.0024 530.364 22.7428 528.799 26.2768L530.627 27.0868C532.062 23.8481 534.038 21.4294 536.537 19.7774L535.434 18.109ZM528.8 26.2745C527.227 29.8004 526.463 34.0616 526.463 39.0227H528.463C528.463 34.2566 529.199 30.2905 530.626 27.0891L528.8 26.2745ZM526.463 39.0227C526.463 43.9828 527.216 48.2625 528.761 51.8294L530.597 51.0342C529.188 47.783 528.463 43.7899 528.463 39.0227H526.463ZM528.761 51.8294C530.304 55.3895 532.511 58.1546 535.399 60.0718L536.505 58.4055C533.984 56.7318 532.008 54.2923 530.597 51.0342L528.761 51.8294ZM535.404 60.075C538.293 61.9688 541.682 62.8977 545.531 62.8977V60.8977C542.016 60.8977 539.02 60.054 536.5 58.4023L535.404 60.075ZM545.531 62.8977C548.987 62.8977 552.001 62.2866 554.535 61.0194L553.641 59.2306C551.448 60.3271 548.757 60.8977 545.531 60.8977V62.8977ZM554.539 61.0177C557.088 59.7308 559.057 57.9051 560.41 55.5426L558.675 54.5483C557.529 56.5494 555.861 58.1101 553.637 59.2323L554.539 61.0177ZM560.406 55.5493C561.783 53.1892 562.452 50.4293 562.452 47.3068H560.452C560.452 50.1389 559.848 52.5381 558.679 54.5416L560.406 55.5493ZM561.306 48.2961L564.306 48.7393L564.598 46.7607L561.598 46.3176L561.306 48.2961ZM564.452 46.75H546.452V48.75H564.452V46.75ZM547.452 47.75V36.6364H545.452V47.75H547.452ZM546.452 37.6364H575.668V35.6364H546.452V37.6364ZM574.668 36.6364V45.4318H576.668V36.6364H574.668ZM574.668 45.4318C574.668 51.4257 573.403 56.516 570.919 60.7434L572.643 61.7566C575.341 57.1658 576.668 51.7106 576.668 45.4318H574.668ZM570.92 60.7414C568.425 64.9665 564.994 68.223 560.612 70.5237L561.542 72.2945C566.25 69.8225 569.956 66.3062 572.642 61.7586L570.92 60.7414ZM560.615 70.5219C556.232 72.8013 551.189 73.9545 545.463 73.9545V75.9545C551.464 75.9545 556.831 74.7441 561.538 72.2963L560.615 70.5219ZM545.463 73.9545C539.069 73.9545 533.498 72.5463 528.716 69.7609L527.71 71.4891C532.838 74.4765 538.766 75.9545 545.463 75.9545V73.9545ZM528.719 69.7627C523.935 66.9535 520.2 62.9714 517.51 57.7892L515.735 58.7108C518.59 64.2104 522.582 68.4783 527.707 71.4873L528.719 69.7627ZM517.512 57.7938C514.849 52.5992 513.497 46.3987 513.497 39.1591H511.497C511.497 46.6467 512.896 53.1735 515.732 58.7062L517.512 57.7938ZM513.497 39.1591C513.497 33.5954 514.302 28.6705 515.89 24.3691L514.014 23.6763C512.329 28.2386 511.497 33.4046 511.497 39.1591H513.497ZM515.889 24.3717C517.505 20.0319 519.754 16.3802 522.626 13.3983L521.186 12.0108C518.104 15.2107 515.716 19.1045 514.015 23.6737L515.889 24.3717ZM522.626 13.3983C525.508 10.4073 528.857 8.13432 532.682 6.57361L531.926 4.72184C527.842 6.3884 524.26 8.81999 521.186 12.0108L522.626 13.3983ZM532.682 6.57361C536.507 5.01272 540.662 4.22727 545.156 4.22727V2.22727C540.424 2.22727 536.01 3.05545 531.926 4.72184L532.682 6.57361ZM545.156 4.22727C549.012 4.22727 552.584 4.79212 555.88 5.91268L556.524 4.01913C553.001 2.82151 549.21 2.22727 545.156 2.22727V4.22727ZM555.885 5.91459C559.192 7.01662 562.109 8.57662 564.648 10.5903L565.891 9.02332C563.158 6.8552 560.03 5.18793 556.518 4.01723L555.885 5.91459ZM564.652 10.5929C567.213 12.6069 569.3 15.0001 570.917 17.7762L572.645 16.7693C570.899 13.7727 568.645 11.1885 565.888 9.02073L564.652 10.5929ZM570.919 17.7791C572.531 20.5236 573.569 23.5561 574.029 26.8869L576.01 26.6131C575.516 23.0348 574.395 19.7491 572.644 16.7663L570.919 17.7791ZM575.02 25.75H560.02V27.75H575.02V25.75ZM645.153 4.18182H646.153V3.18182H645.153V4.18182ZM645.153 74V75H646.153V74H645.153ZM632.403 74L631.581 74.5686L631.879 75H632.403V74ZM602.028 30.0568L602.851 29.4882L602.553 29.0568H602.028V30.0568ZM601.517 30.0568V29.0568H600.517V30.0568H601.517ZM601.517 74V75H602.517V74H601.517ZM586.756 74H585.756V75H586.756V74ZM586.756 4.18182V3.18182H585.756V4.18182H586.756ZM599.71 4.18182L600.535 3.61594L600.237 3.18182H599.71V4.18182ZM629.847 48.0909L629.022 48.6568L629.32 49.0909H629.847V48.0909ZM630.46 48.0909V49.0909H631.46V48.0909H630.46ZM630.46 4.18182V3.18182H629.46V4.18182H630.46ZM644.153 4.18182V74H646.153V4.18182H644.153ZM645.153 73H632.403V75H645.153V73ZM633.226 73.4314L602.851 29.4882L601.206 30.6254L631.581 74.5686L633.226 73.4314ZM602.028 29.0568H601.517V31.0568H602.028V29.0568ZM600.517 30.0568V74H602.517V30.0568H600.517ZM601.517 73H586.756V75H601.517V73ZM587.756 74V4.18182H585.756V74H587.756ZM586.756 5.18182H599.71V3.18182H586.756V5.18182ZM598.886 4.74769L629.022 48.6568L630.671 47.525L600.535 3.61594L598.886 4.74769ZM629.847 49.0909H630.46V47.0909H629.847V49.0909ZM631.46 48.0909V4.18182H629.46V48.0909H631.46ZM630.46 5.18182H645.153V3.18182H630.46V5.18182ZM657.349 74H656.349V75H657.349V74ZM657.349 4.18182V3.18182H656.349V4.18182H657.349ZM704.395 4.18182H705.395V3.18182H704.395V4.18182ZM704.395 16.3523V17.3523H705.395V16.3523H704.395ZM672.111 16.3523V15.3523H671.111V16.3523H672.111ZM672.111 32.9886H671.111V33.9886H672.111V32.9886ZM701.974 32.9886H702.974V31.9886H701.974V32.9886ZM701.974 45.1591V46.1591H702.974V45.1591H701.974ZM672.111 45.1591V44.1591H671.111V45.1591H672.111ZM672.111 61.8295H671.111V62.8295H672.111V61.8295ZM704.531 61.8295H705.531V60.8295H704.531V61.8295ZM704.531 74V75H705.531V74H704.531ZM658.349 74V4.18182H656.349V74H658.349ZM657.349 5.18182H704.395V3.18182H657.349V5.18182ZM703.395 4.18182V16.3523H705.395V4.18182H703.395ZM704.395 15.3523H672.111V17.3523H704.395V15.3523ZM671.111 16.3523V32.9886H673.111V16.3523H671.111ZM672.111 33.9886H701.974V31.9886H672.111V33.9886ZM700.974 32.9886V45.1591H702.974V32.9886H700.974ZM701.974 44.1591H672.111V46.1591H701.974V44.1591ZM671.111 45.1591V61.8295H673.111V45.1591H671.111ZM672.111 62.8295H704.531V60.8295H672.111V62.8295ZM703.531 61.8295V74H705.531V61.8295H703.531ZM704.531 73H657.349V75H704.531V73ZM716.131 74H715.131V75H716.131V74ZM716.131 4.18182V3.18182H715.131V4.18182H716.131ZM757.176 7.01136L756.725 7.90363L756.731 7.90687L757.176 7.01136ZM765.733 14.9545L764.864 15.4495L764.868 15.4563L765.733 14.9545ZM765.699 38.9545L766.555 39.4708L766.557 39.4682L765.699 38.9545ZM757.006 46.5909L756.583 45.6849L756.58 45.6858L757.006 46.5909ZM724.858 49.25H723.858V50.25H724.858V49.25ZM724.858 37.3864V36.3864H723.858V37.3864H724.858ZM747.938 36.2273L748.32 37.151L747.938 36.2273ZM752.097 32.75L751.24 32.2336L751.235 32.243L752.097 32.75ZM752.097 21.125L751.228 21.6212L751.234 21.6304L752.097 21.125ZM747.903 17.5114L747.492 18.4229L747.499 18.4259L747.505 18.4288L747.903 17.5114ZM730.892 16.25V15.25H729.892V16.25H730.892ZM730.892 74V75H731.892V74H730.892ZM753.835 42.2273L754.713 41.748L754.429 41.2273H753.835V42.2273ZM771.188 74V75H772.873L772.065 73.5207L771.188 74ZM754.892 74L754.01 74.4713L754.293 75H754.892V74ZM737.915 42.2273V41.2273H736.247L737.033 42.6985L737.915 42.2273ZM717.131 74V4.18182H715.131V74H717.131ZM716.131 5.18182H743.676V3.18182H716.131V5.18182ZM743.676 5.18182C748.832 5.18182 753.169 6.10421 756.725 7.9036L757.628 6.11912C753.729 4.14579 749.066 3.18182 743.676 3.18182V5.18182ZM756.731 7.90687C760.314 9.68768 763.014 12.201 764.864 15.4494L766.602 14.4596C764.543 10.8445 761.538 8.06232 757.621 6.11585L756.731 7.90687ZM764.868 15.4563C766.743 18.6887 767.699 22.5209 767.699 26.9886H769.699C769.699 22.2291 768.678 18.0386 766.598 14.4528L764.868 15.4563ZM767.699 26.9886C767.699 31.4788 766.732 35.2825 764.841 38.4409L766.557 39.4682C768.666 35.9447 769.699 31.7712 769.699 26.9886H767.699ZM764.842 38.4383C762.953 41.5725 760.213 43.989 756.583 45.6849L757.429 47.497C761.389 45.6473 764.444 42.9729 766.555 39.4708L764.842 38.4383ZM756.58 45.6858C752.973 47.3808 748.558 48.25 743.301 48.25V50.25C748.771 50.25 753.493 49.3465 757.431 47.496L756.58 45.6858ZM743.301 48.25H724.858V50.25H743.301V48.25ZM725.858 49.25V37.3864H723.858V49.25H725.858ZM724.858 38.3864H740.915V36.3864H724.858V38.3864ZM740.915 38.3864C743.816 38.3864 746.297 37.9898 748.32 37.151L747.555 35.3035C745.85 36.0102 743.65 36.3864 740.915 36.3864V38.3864ZM748.32 37.151C750.358 36.306 751.926 35.0129 752.958 33.257L751.235 32.243C750.449 33.578 749.244 34.6031 747.555 35.3035L748.32 37.151ZM752.953 33.2663C754.001 31.528 754.494 29.4173 754.494 26.9886H752.494C752.494 29.1509 752.056 30.8811 751.24 32.2337L752.953 33.2663ZM754.494 26.9886C754.494 24.5379 754.001 22.3986 752.959 20.6196L751.234 21.6304C752.055 23.0333 752.494 24.803 752.494 26.9886H754.494ZM752.965 20.6289C751.936 18.8277 750.36 17.4871 748.301 16.5939L747.505 18.4288C749.219 19.172 750.439 20.2405 751.228 21.6211L752.965 20.6289ZM748.315 16.5999C746.282 15.6826 743.778 15.25 740.847 15.25V17.25C743.597 17.25 745.798 17.6583 747.492 18.4229L748.315 16.5999ZM740.847 15.25H730.892V17.25H740.847V15.25ZM729.892 16.25V74H731.892V16.25H729.892ZM730.892 73H716.131V75H730.892V73ZM752.958 42.7066L770.31 74.4793L772.065 73.5207L754.713 41.748L752.958 42.7066ZM771.188 73H754.892V75H771.188V73ZM755.774 73.5287L738.797 41.756L737.033 42.6985L754.01 74.4713L755.774 73.5287ZM737.915 43.2273H753.835V41.2273H737.915V43.2273Z" fill="black"/>
</svg>
